<?xml version="1.0"?>
<svg xmlns="http://www.w3.org/2000/svg" viewBox="0 0 64 64" width="512" height="512"><g id="Flat"><polygon points="36 55 36 53 28 53 28 55 24 61 40 61 36 55" style="fill:gray"/><rect x="3" y="11" width="58" height="38" style="fill:gray"/><rect x="7" y="15" width="50" height="30" style="fill:#e6e6e6"/><rect x="3" y="49" width="58" height="6" style="fill:#b3b3b3"/><path d="M32,53a.99.99,0,0,1-1-1,1.033,1.033,0,0,1,.29-.71l.15-.12a.757.757,0,0,1,.18-.09.636.636,0,0,1,.18-.06,1.009,1.009,0,0,1,.91.27A1.033,1.033,0,0,1,33,52a.99.99,0,0,1-1,1Z" style="fill:gray"/><rect x="13" y="9" width="38" height="32" style="fill:#02998a"/><rect x="11" y="3" width="6" height="10" style="fill:#ffa900"/><path d="M11,13h6v1a3,3,0,0,1-3,3h0a3,3,0,0,1-3-3Z" style="fill:#fdb62f"/><rect x="17" y="3" width="6" height="10" style="fill:#ff6536"/><path d="M23,13v1a3,3,0,0,1-3,3h0a3,3,0,0,1-3-3V13Z" style="fill:#f80"/><rect x="23" y="3" width="6" height="10" style="fill:#ffa900"/><path d="M29,13v1a3,3,0,0,1-3,3h0a3,3,0,0,1-3-3V13Z" style="fill:#fdb62f"/><rect x="29" y="3" width="6" height="10" style="fill:#ff6536"/><path d="M29,13h6v1a3,3,0,0,1-3,3h0a3,3,0,0,1-3-3Z" style="fill:#f80"/><rect x="35" y="3" width="6" height="10" style="fill:#ffa900"/><path d="M35,13h6v1a3,3,0,0,1-3,3h0a3,3,0,0,1-3-3Z" style="fill:#fdb62f"/><rect x="41" y="3" width="6" height="10" style="fill:#ff6536"/><path d="M41,13h6v1a3,3,0,0,1-3,3h0a3,3,0,0,1-3-3Z" style="fill:#f80"/><rect x="47" y="3" width="6" height="10" style="fill:#ffa900"/><path d="M47,13h6v1a3,3,0,0,1-3,3h0a3,3,0,0,1-3-3Z" style="fill:#fdb62f"/><rect x="27" y="23" width="12" height="18" style="fill:#f80"/><rect x="17" y="23" width="6" height="12" transform="translate(40 58) rotate(180)" style="fill:#89c9d2"/><rect x="37" y="23" width="10" height="18" style="fill:#ffa900"/></g></svg>
