<svg id="Capa_1" enable-background="new 0 0 512 512" height="512" viewBox="0 0 512 512" width="512" xmlns="http://www.w3.org/2000/svg"><path d="m501.995 511.996h-491.995c-5.523 0-10-4.477-10-10v-491.995c0-5.523 4.477-10 10-10h491.995c5.523 0 10 4.477 10 10v491.995c0 5.523-4.477 10-10 10z" fill="#fff5f5"/><path d="m512 15.475v481.049c0 8.552-6.922 15.474-15.474 15.474h-34.993c8.552 0 15.474-6.922 15.474-15.474v-481.049c0-8.552-6.922-15.474-15.474-15.474h34.993c8.552 0 15.474 6.922 15.474 15.474z" fill="#efe2dd"/><path d="m511.995 89.664h-511.995v-79.663c0-5.523 4.477-10 10-10h491.995c5.523 0 10 4.477 10 10z" fill="#00aaf2"/><path d="m512 15.475v74.185h-34.993v-74.185c0-8.552-6.922-15.474-15.474-15.474h34.993c8.552 0 15.474 6.922 15.474 15.474z" fill="#0091d0"/><circle cx="61.018" cy="46.152" fill="#ff5757" r="16.961"/><circle cx="126.522" cy="46.152" fill="#ffc143" r="16.961"/><circle cx="192.026" cy="46.152" fill="#a3e72d" r="16.961"/><path d="m77.974 46.158c0 9.363-7.586 16.949-16.95 16.949-4.535 0-8.662-1.777-11.701-4.688 9.176-.199 16.564-7.703 16.564-16.938 0-4.84-2.022-9.188-5.26-12.274.129-.012.269-.012.397-.012 9.363.001 16.95 7.588 16.95 16.963z" fill="#ff4343"/><path d="m143.481 46.158c0 9.363-7.586 16.949-16.961 16.949-4.535 0-8.65-1.777-11.701-4.688 9.188-.199 16.576-7.703 16.576-16.938 0-4.84-2.022-9.188-5.26-12.274.129-.012.257-.012.386-.012 9.374.001 16.96 7.588 16.96 16.963z" fill="#ffb509"/><path d="m208.988 46.158c0 9.363-7.598 16.949-16.961 16.949-4.535 0-8.65-1.777-11.701-4.688 9.188-.199 16.564-7.703 16.564-16.938 0-4.84-2.022-9.188-5.26-12.274.129-.012.269-.012.397-.012 9.363.001 16.961 7.588 16.961 16.963z" fill="#80cf00"/><path d="m452.057 180.19h-392.119c-3.431 0-6.213-2.782-6.213-6.213v-37.192c0-3.431 2.782-6.213 6.213-6.213h392.119c3.431 0 6.213 2.782 6.213 6.213v37.192c0 3.432-2.781 6.213-6.213 6.213z" fill="#a3e72d"/><path d="m452.057 262.789h-392.119c-3.431 0-6.213-2.782-6.213-6.213v-37.192c0-3.431 2.782-6.213 6.213-6.213h392.119c3.431 0 6.213 2.782 6.213 6.213v37.192c0 3.431-2.781 6.213-6.213 6.213z" fill="#a3e72d"/><path d="m452.057 180.19h-23.132v-49.618h23.132c3.431 0 6.213 2.782 6.213 6.213v37.192c0 3.432-2.781 6.213-6.213 6.213z" fill="#80cf00"/><path d="m452.057 262.789h-23.132v-49.619h23.132c3.431 0 6.213 2.782 6.213 6.213v37.192c0 3.432-2.781 6.214-6.213 6.214z" fill="#80cf00"/><path d="m452.057 402.938h-392.119c-3.431 0-6.213-2.782-6.213-6.213v-94.743c0-3.431 2.782-6.213 6.213-6.213h392.119c3.431 0 6.213 2.782 6.213 6.213v94.743c0 3.431-2.781 6.213-6.213 6.213z" fill="#c9f0ff"/><path d="m428.925 295.772h23.134c3.427 0 6.213 2.775 6.213 6.213v94.738c0 3.438-2.786 6.213-6.213 6.213h-23.134z" fill="#9ae7fd"/><path d="m452.057 474.006h-87.459c-3.431 0-6.213-2.782-6.213-6.213v-25.662c0-3.431 2.782-6.213 6.213-6.213h87.459c3.431 0 6.213 2.782 6.213 6.213v25.662c0 3.431-2.781 6.213-6.213 6.213z" fill="#ff5757"/><path d="m452.057 474.006h-23.132v-38.088h23.132c3.431 0 6.213 2.782 6.213 6.213v25.662c0 3.431-2.781 6.213-6.213 6.213z" fill="#f72c2c"/><g fill="#7ca1b1"><path d="m112.771 336.87h-25.48c-4.143 0-7.5-3.357-7.5-7.5s3.357-7.5 7.5-7.5h25.48c4.143 0 7.5 3.357 7.5 7.5s-3.357 7.5-7.5 7.5z"/><path d="m296.762 336.87h-155.457c-4.143 0-7.5-3.357-7.5-7.5s3.357-7.5 7.5-7.5h155.457c4.143 0 7.5 3.357 7.5 7.5s-3.358 7.5-7.5 7.5z"/><path d="m273.148 363.186h-56.852c-4.143 0-7.5-3.357-7.5-7.5s3.357-7.5 7.5-7.5h56.852c4.143 0 7.5 3.357 7.5 7.5s-3.357 7.5-7.5 7.5z"/><path d="m186.564 363.186h-17.721c-4.143 0-7.5-3.357-7.5-7.5s3.357-7.5 7.5-7.5h17.721c4.143 0 7.5 3.357 7.5 7.5s-3.357 7.5-7.5 7.5z"/><path d="m140.321 363.186h-53.03c-4.143 0-7.5-3.357-7.5-7.5s3.357-7.5 7.5-7.5h53.03c4.143 0 7.5 3.357 7.5 7.5s-3.357 7.5-7.5 7.5z"/></g></svg>