<svg enable-background="new 0 0 58 58" height="512" viewBox="0 0 58 58" width="512" xmlns="http://www.w3.org/2000/svg"><path d="m54.75 58h-51.5c-1.795 0-3.25-1.455-3.25-3.25v-43.75h58v43.75c0 1.795-1.455 3.25-3.25 3.25z" fill="#e7eced"/><path d="m58 12h-58v-8.75c0-1.795 1.455-3.25 3.25-3.25h51.5c1.795 0 3.25 1.455 3.25 3.25z" fill="#556080"/><path d="m4 4h4v4h-4z" fill="#dd352e"/><path d="m12 4h4v4h-4z" fill="#ebba16"/><path d="m20 4h4v4h-4z" fill="#23a24d"/><path d="m40 18h12v8h-12z" fill="#dd352e"/><path d="m23 18h12v8h-12z" fill="#ebba16"/><path d="m6 31h12v8h-12z" fill="#ed8a19"/><path d="m40 31h12v8h-12z" fill="#23a24d"/><path d="m23 31h12v8h-12z" fill="#366db6"/><path d="m6 44h12v8h-12z" fill="#c5411e"/><path d="m40 44h12v8h-12z" fill="#57abc1"/><path d="m23 44h12v8h-12z" fill="#7383bf"/><g fill="#23a24d"><path d="m12 27c-.552 0-1-.447-1-1v-8c0-.553.448-1 1-1s1 .447 1 1v8c0 .553-.448 1-1 1z"/><path d="m16 23h-8c-.552 0-1-.447-1-1s.448-1 1-1h8c.552 0 1 .447 1 1s-.448 1-1 1z"/></g></svg>